# xmcd
#
# Track frame offsets:
#	150
#	20624
#	39800
#	54119
#	73434
#	93192
#	107858
#	126186
#	147518
#	162189
#	181508
#	199100
#	216967
#	232210
#	249821
#
# Disc length: 3620 seconds
#
# Revision: 1
# Processed by: cddbd v1.5.1PL0 Copyright (c) Steve Scherf et al.
# Submitted via: audiograbber 1.83.01
#
DISCID=ce0e220f
DTITLE=Headtag - The Shindig
DYEAR=2004
DGENRE=Hip-Hop
TTITLE0=Car To Oslo
TTITLE1=Peek A Boo
TTITLE2=Cookie Crumble
TTITLE3=Mouth Run
TTITLE4=Reach In Yer Cooler
TTITLE5=Phone Convo
TTITLE6=Why Trash
TTITLE7=From Us To You
TTITLE8=For Men And Their Sons
TTITLE9=Love It
TTITLE10=Sacrifize
TTITLE11=The Proof
TTITLE12=Golden Days
TTITLE13=What You Hear
TTITLE14=Step It Up
EXTD=
EXTT0=
EXTT1=
EXTT2=
EXTT3=
EXTT4=
EXTT5=
EXTT6=
EXTT7=
EXTT8=
EXTT9=
EXTT10=
EXTT11=
EXTT12=
EXTT13=
EXTT14=
PLAYORDER=
